<svg xmlns="http://www.w3.org/2000/svg" viewBox="0 0 51.21 51.94"><defs><style>.cls-1{fill:#7173f7;}</style></defs><g id="Capa_2" data-name="Capa 2"><g id="Capa_1-2" data-name="Capa 1"><path class="cls-1" d="M49.39,16.56c-.15-.39-.33-.75-.49-1.12a27.44,27.44,0,0,0-4.69-7.29A25.19,25.19,0,0,0,36.16,2.2,24.12,24.12,0,0,0,25.75,0,25,25,0,0,0,7.29,7.83a27,27,0,0,0-5.37,8.26A25.1,25.1,0,0,0,0,25.83c0,.13,0,.26,0,.39v0c0,.6,0,1.18.08,1.77a25.06,25.06,0,0,0,.39,2.87H9.2A2.84,2.84,0,0,0,12,28.05V26.77a21.13,21.13,0,0,1,.15-2.51A28.71,28.71,0,0,1,13,19.91a17,17,0,0,1,2.55-5c.16-.22.34-.41.51-.62a12.17,12.17,0,0,1,3.71-3,12.94,12.94,0,0,1,6-1.31,13.05,13.05,0,0,1,5.75,1.24,11.87,11.87,0,0,1,4.26,3.46,16.41,16.41,0,0,1,2.62,5,18.16,18.16,0,0,1,.91,5.75c0,.58,0,1.15-.08,1.73a19.45,19.45,0,0,1-.59,3.38c-.05.19-.11.38-.16.57a16.78,16.78,0,0,1-2.52,5.06,12.17,12.17,0,0,1-4.22,3.64,12.43,12.43,0,0,1-5.87,1.34H23l-18.3,0H.39V51.94H25.46a24.63,24.63,0,0,0,10.33-2.13A26.12,26.12,0,0,0,44,44a28.88,28.88,0,0,0,2.22-2.63l0,0a26.18,26.18,0,0,0,3.13-5.59,25.55,25.55,0,0,0,1.4-4.69c0-.07,0-.14,0-.2a25.85,25.85,0,0,0-1.37-14.33Z"/></g></g></svg>